%FSLAX43Y43*%
%MOMM*%
G71*
G01*
G75*
%ADD10C,0.300*%
%ADD11C,0.125*%
%ADD12R,1.600X1.800*%
%ADD13R,0.600X2.200*%
%ADD14R,1.800X1.600*%
%ADD15R,2.000X2.000*%
%ADD16R,2.000X1.500*%
%ADD17R,7.000X7.000*%
%ADD18R,1.500X1.300*%
%ADD19R,1.300X1.500*%
%ADD20R,0.600X1.700*%
%ADD21R,0.600X1.700*%
%ADD22R,6.000X6.000*%
%ADD23R,3.000X4.000*%
%ADD24C,0.400*%
%ADD25C,0.500*%
%ADD26C,1.000*%
%ADD27C,2.000*%
%ADD28C,0.600*%
%ADD29C,2.000*%
%ADD30C,5.000*%
%ADD31C,1.400*%
%ADD32R,1.400X1.400*%
%ADD33C,1.500*%
%ADD34R,1.500X1.500*%
%ADD35C,4.000*%
%ADD36C,3.000*%
%ADD37R,3.000X3.000*%
%ADD38C,1.500*%
%ADD39R,1.500X1.500*%
%ADD40C,2.500*%
%ADD41O,2.000X3.000*%
%ADD42C,1.100*%
%ADD43R,1.803X2.003*%
%ADD44R,0.803X2.403*%
%ADD45R,2.003X1.803*%
%ADD46R,2.203X2.203*%
%ADD47R,2.203X1.703*%
%ADD48R,7.203X7.203*%
%ADD49R,1.703X1.503*%
%ADD50R,1.503X1.703*%
%ADD51R,0.803X1.903*%
%ADD52R,0.803X1.903*%
%ADD53R,6.203X6.203*%
%ADD54R,3.203X4.203*%
%ADD55C,2.203*%
%ADD56C,5.203*%
%ADD57C,1.603*%
%ADD58R,1.603X1.603*%
%ADD59C,1.703*%
%ADD60R,1.703X1.703*%
%ADD61C,4.203*%
%ADD62C,3.203*%
%ADD63R,3.203X3.203*%
%ADD64C,1.703*%
%ADD65R,1.703X1.703*%
%ADD66C,2.703*%
%ADD67O,2.203X3.203*%
%ADD68C,1.303*%
D45*
X133793Y-30512D02*
D03*
Y-27712D02*
D03*
D46*
X148999Y-4001D02*
D03*
X127900Y-4000D02*
D03*
X138500D02*
D03*
X37500Y-62500D02*
D03*
X27500D02*
D03*
X7500D02*
D03*
X17500D02*
D03*
X2501Y-56001D02*
D03*
D50*
X17365Y-32595D02*
D03*
X19265D02*
D03*
D55*
X158999Y-4001D02*
D03*
X153999D02*
D03*
X132900Y-4000D02*
D03*
X143500D02*
D03*
X32500Y-62500D02*
D03*
X22500D02*
D03*
X12500D02*
D03*
X2500D02*
D03*
X2501Y-51001D02*
D03*
Y-46001D02*
D03*
D56*
X105000Y-10000D02*
D03*
X107500Y-55000D02*
D03*
X195000Y-60000D02*
D03*
Y-5000D02*
D03*
X168800Y-5100D02*
D03*
Y-60100D02*
D03*
X45000Y-5000D02*
D03*
Y-60000D02*
D03*
D57*
X112011Y-44008D02*
D03*
X92011D02*
D03*
X72011D02*
D03*
X52011D02*
D03*
X120489Y-20992D02*
D03*
X100489D02*
D03*
X80489D02*
D03*
X60489D02*
D03*
X144111Y-39808D02*
D03*
X140000Y-42500D02*
D03*
X136666Y-29034D02*
D03*
X126500Y-29300D02*
D03*
X134400Y-18200D02*
D03*
X23300Y-13700D02*
D03*
X10600Y-33000D02*
D03*
X12400Y-21100D02*
D03*
X16400Y-29200D02*
D03*
X17000Y-35700D02*
D03*
X20600Y-29300D02*
D03*
X31389Y-32500D02*
D03*
X30600Y-48400D02*
D03*
X28800Y-37100D02*
D03*
X34600Y-37595D02*
D03*
X29000Y-39100D02*
D03*
X34600Y-40300D02*
D03*
X27000Y-47200D02*
D03*
X38800D02*
D03*
X17500Y-47700D02*
D03*
X12400Y-47800D02*
D03*
X20400Y-46800D02*
D03*
X28400Y-45600D02*
D03*
X11400Y-46400D02*
D03*
X34600Y-44700D02*
D03*
X22600Y-43200D02*
D03*
X28300Y-42500D02*
D03*
X14800Y-24600D02*
D03*
D58*
X109511Y-44008D02*
D03*
X89511D02*
D03*
X69511D02*
D03*
X49511D02*
D03*
X122989Y-20992D02*
D03*
X102989D02*
D03*
X82989D02*
D03*
X62989D02*
D03*
X141611Y-39808D02*
D03*
D59*
X127048Y-40191D02*
D03*
X129588D02*
D03*
X132128D02*
D03*
X130093Y-61699D02*
D03*
X142093D02*
D03*
X35800Y-4680D02*
D03*
X24400D02*
D03*
X34545Y-11030D02*
D03*
X33275Y-13570D02*
D03*
X32005Y-11030D02*
D03*
X30735Y-13570D02*
D03*
X26925Y-11030D02*
D03*
X25655Y-13570D02*
D03*
X5555D02*
D03*
X6825Y-11030D02*
D03*
X8095Y-13570D02*
D03*
X9365Y-11030D02*
D03*
X10635Y-13570D02*
D03*
X11905Y-11030D02*
D03*
X13175Y-13570D02*
D03*
X14445Y-11030D02*
D03*
X4300Y-4680D02*
D03*
X15700D02*
D03*
X16692Y-42788D02*
D03*
X35592Y-42488D02*
D03*
X15848Y-21191D02*
D03*
X18388D02*
D03*
X20928D02*
D03*
X7900Y-36708D02*
D03*
X7900Y-41708D02*
D03*
X2000Y-26040D02*
D03*
Y-28580D02*
D03*
Y-31120D02*
D03*
Y-33660D02*
D03*
X29465Y-11030D02*
D03*
X28195Y-13570D02*
D03*
D60*
X137208Y-40191D02*
D03*
X130093Y-56699D02*
D03*
X142093D02*
D03*
X19192Y-42788D02*
D03*
X38092Y-42488D02*
D03*
X26008Y-21191D02*
D03*
X2000Y-36200D02*
D03*
D61*
X156300Y-25100D02*
D03*
Y-40100D02*
D03*
X181300Y-20100D02*
D03*
Y-45100D02*
D03*
D62*
X195901Y-27601D02*
D03*
Y-32601D02*
D03*
X57500Y-3700D02*
D03*
X77500D02*
D03*
X97500D02*
D03*
X117500D02*
D03*
X54900Y-61200D02*
D03*
X74900D02*
D03*
X94900D02*
D03*
X114900Y-61200D02*
D03*
X52400D02*
D03*
X72400D02*
D03*
X92400D02*
D03*
X112400D02*
D03*
X60000Y-3700D02*
D03*
X80000D02*
D03*
X99900D02*
D03*
X120000D02*
D03*
D63*
X195901Y-37601D02*
D03*
X52500Y-3700D02*
D03*
X72500D02*
D03*
X92500D02*
D03*
X112500D02*
D03*
X59900Y-61200D02*
D03*
X79900D02*
D03*
X99900D02*
D03*
X119900D02*
D03*
D64*
X22460Y-57510D02*
D03*
X25000D02*
D03*
X27540D02*
D03*
X22460Y-49890D02*
D03*
X25000D02*
D03*
X32460Y-57510D02*
D03*
X35000D02*
D03*
X37540D02*
D03*
X32460Y-49890D02*
D03*
X35000D02*
D03*
D65*
X27540D02*
D03*
X37540D02*
D03*
D66*
X37800Y-1600D02*
D03*
X22400D02*
D03*
X2300D02*
D03*
X17700D02*
D03*
D67*
X57038Y-15711D02*
D03*
X54498Y-13211D02*
D03*
X51958Y-15711D02*
D03*
X77038D02*
D03*
X74498Y-13211D02*
D03*
X71958Y-15711D02*
D03*
X97038D02*
D03*
X94498Y-13211D02*
D03*
X91958Y-15711D02*
D03*
X117038D02*
D03*
X114498Y-13211D02*
D03*
X111958Y-15711D02*
D03*
X55362Y-49189D02*
D03*
X57902Y-51689D02*
D03*
X60442Y-49189D02*
D03*
X75362D02*
D03*
X77902Y-51689D02*
D03*
X80442Y-49189D02*
D03*
X95362D02*
D03*
X97902Y-51689D02*
D03*
X100442Y-49189D02*
D03*
X115362D02*
D03*
X117902Y-51689D02*
D03*
X120442Y-49189D02*
D03*
D68*
X4800Y-43907D02*
D03*
X9000Y-44807D02*
D03*
X7300Y-48207D02*
D03*
X7506Y-53500D02*
D03*
X35006Y-17600D02*
D03*
X16400Y-12607D02*
D03*
X20006Y-12700D02*
D03*
X3900Y-16807D02*
D03*
X21406Y-18800D02*
D03*
X4506Y-23700D02*
D03*
X5206Y-35800D02*
D03*
X22900Y-24807D02*
D03*
X26400Y-28007D02*
D03*
X28106Y-34400D02*
D03*
X13800Y-40507D02*
D03*
X145006Y-59900D02*
D03*
D03*
X147500Y-62507D02*
D03*
X130006Y-22500D02*
D03*
X142500Y-15007D02*
D03*
X139100Y-24207D02*
D03*
X143500Y-20107D02*
D03*
X142506Y-27500D02*
D03*
X145000Y-30107D02*
D03*
X142500Y-32507D02*
D03*
Y-37507D02*
D03*
X142506Y-42500D02*
D03*
X145000Y-45007D02*
D03*
X142500Y-47507D02*
D03*
X145006Y-50100D02*
D03*
X142500Y-52607D02*
D03*
X137506Y-35000D02*
D03*
X135000Y-37507D02*
D03*
X127506Y-42500D02*
D03*
X132506Y-42600D02*
D03*
X137500Y-42507D02*
D03*
X137600Y-47507D02*
D03*
X137506Y-52500D02*
D03*
X132506D02*
D03*
X127500Y-52507D02*
D03*
Y-47507D02*
D03*
X122800Y-37007D02*
D03*
X125006Y-17500D02*
D03*
X130000Y-17507D02*
D03*
X140006Y-17500D02*
D03*
X137500Y-20007D02*
D03*
X137506Y-15000D02*
D03*
X127506D02*
D03*
Y-20000D02*
D03*
X127500Y-25007D02*
D03*
X72506Y-35000D02*
D03*
X67506D02*
D03*
X62506D02*
D03*
X72506Y-30000D02*
D03*
X87506D02*
D03*
X82506D02*
D03*
X77500Y-30007D02*
D03*
X67506Y-30000D02*
D03*
X62506D02*
D03*
X57506D02*
D03*
X47500Y-25007D02*
D03*
X55000Y-32507D02*
D03*
X52506Y-35000D02*
D03*
Y-30000D02*
D03*
X47506Y-35000D02*
D03*
X50006Y-32500D02*
D03*
X47500Y-30007D02*
D03*
X45000Y-22507D02*
D03*
X42500Y-25007D02*
D03*
X45006Y-27500D02*
D03*
X42500Y-30007D02*
D03*
X45000Y-32507D02*
D03*
X42506Y-35000D02*
D03*
X45000Y-37507D02*
D03*
X42500Y-40007D02*
D03*
X45000Y-42507D02*
D03*
X52506Y-40000D02*
D03*
X72506Y-40100D02*
D03*
X92500Y-40007D02*
D03*
X112500D02*
D03*
X120000Y-25007D02*
D03*
X100006Y-25000D02*
D03*
X60000Y-25007D02*
D03*
X80000D02*
D03*
X67506Y-25000D02*
D03*
X67500Y-20007D02*
D03*
X87506Y-25000D02*
D03*
X87500Y-20007D02*
D03*
X107500D02*
D03*
X107506Y-25000D02*
D03*
X105000Y-37507D02*
D03*
Y-42507D02*
D03*
X85006Y-37500D02*
D03*
X85000Y-42507D02*
D03*
X65000Y-37507D02*
D03*
Y-42507D02*
D03*
X19265Y-32595D02*
D03*
X133806Y-30400D02*
D03*
M02*
