%FSLAX43Y43*%
%MOMM*%
G71*
G01*
G75*
%ADD10C,0.300*%
%ADD11C,0.125*%
%ADD12R,1.600X1.800*%
%ADD13R,0.600X2.200*%
%ADD14R,1.800X1.600*%
%ADD15R,2.000X2.000*%
%ADD16R,2.000X1.500*%
%ADD17R,7.000X7.000*%
%ADD18R,1.500X1.300*%
%ADD19R,1.300X1.500*%
%ADD20R,0.600X1.700*%
%ADD21R,0.600X1.700*%
%ADD22R,6.000X6.000*%
%ADD23R,3.000X4.000*%
%ADD24C,0.400*%
%ADD25C,0.500*%
%ADD26C,1.000*%
%ADD27C,2.000*%
%ADD28C,0.600*%
%ADD29C,2.000*%
%ADD30C,5.000*%
%ADD31C,1.400*%
%ADD32R,1.400X1.400*%
%ADD33C,1.500*%
%ADD34R,1.500X1.500*%
%ADD35C,4.000*%
%ADD36C,3.000*%
%ADD37R,3.000X3.000*%
%ADD38C,1.500*%
%ADD39R,1.500X1.500*%
%ADD40C,2.500*%
%ADD41O,2.000X3.000*%
%ADD42C,1.100*%
%ADD43R,1.803X2.003*%
%ADD44R,0.803X2.403*%
%ADD45R,2.003X1.803*%
%ADD46R,2.203X2.203*%
%ADD47R,2.203X1.703*%
%ADD48R,7.203X7.203*%
%ADD49R,1.703X1.503*%
%ADD50R,1.503X1.703*%
%ADD51R,0.803X1.903*%
%ADD52R,0.803X1.903*%
%ADD53R,6.203X6.203*%
%ADD54R,3.203X4.203*%
%ADD55C,2.203*%
%ADD56C,5.203*%
%ADD57C,1.603*%
%ADD58R,1.603X1.603*%
%ADD59C,1.703*%
%ADD60R,1.703X1.703*%
%ADD61C,4.203*%
%ADD62C,3.203*%
%ADD63R,3.203X3.203*%
%ADD64C,1.703*%
%ADD65R,1.703X1.703*%
%ADD66C,2.703*%
%ADD67O,2.203X3.203*%
%ADD68C,1.303*%
D11*
X136349Y-24355D02*
X136758Y-24764D01*
X135536Y-25986D01*
X135127Y-25577D01*
X136349Y-24355D01*
Y-24503D02*
X136611Y-24764D01*
X135536Y-25839D01*
X135274Y-25577D01*
X136349Y-24503D01*
Y-24650D02*
X136463Y-24764D01*
X135536Y-25692D01*
X135422Y-25577D01*
X136349Y-24650D01*
X136323Y-24772D02*
X135561Y-25570D01*
X10975Y-34779D02*
X10566Y-34370D01*
X11965Y-32971D01*
X12374Y-33380D01*
X10975Y-34779D01*
Y-34632D02*
X10714Y-34370D01*
X11965Y-33119D01*
X12227Y-33380D01*
X10975Y-34632D01*
Y-34484D02*
X10861Y-34370D01*
X11965Y-33266D01*
X12079Y-33380D01*
X10975Y-34484D01*
X11001Y-34363D02*
X11940Y-33388D01*
X11541Y-35345D02*
X11132Y-34936D01*
X12531Y-33537D01*
X12940Y-33946D01*
X11541Y-35345D01*
Y-35197D02*
X11279Y-34936D01*
X12531Y-33684D01*
X12792Y-33946D01*
X11541Y-35197D01*
Y-35050D02*
X11427Y-34936D01*
X12531Y-33832D01*
X12645Y-33946D01*
X11541Y-35050D01*
X11566Y-34928D02*
X12505Y-33953D01*
X12107Y-35910D02*
X11698Y-35502D01*
X13097Y-34103D01*
X13505Y-34512D01*
X12107Y-35910D01*
Y-35763D02*
X11845Y-35502D01*
X13097Y-34250D01*
X13358Y-34512D01*
X12107Y-35763D01*
Y-35616D02*
X11992Y-35502D01*
X13097Y-34397D01*
X13211Y-34512D01*
X12107Y-35616D01*
X12132Y-35494D02*
X13071Y-34519D01*
X12672Y-36476D02*
X12264Y-36067D01*
X13662Y-34668D01*
X14071Y-35077D01*
X12672Y-36476D01*
Y-36329D02*
X12411Y-36067D01*
X13662Y-34816D01*
X13924Y-35077D01*
X12672Y-36329D01*
Y-36181D02*
X12558Y-36067D01*
X13662Y-34963D01*
X13777Y-35077D01*
X12672Y-36181D01*
X12698Y-36060D02*
X13637Y-35085D01*
X13238Y-37042D02*
X12829Y-36633D01*
X14228Y-35234D01*
X14637Y-35643D01*
X13238Y-37042D01*
Y-36894D02*
X12976Y-36633D01*
X14228Y-35381D01*
X14489Y-35643D01*
X13238Y-36894D01*
Y-36747D02*
X13124Y-36633D01*
X14228Y-35529D01*
X14342Y-35643D01*
X13238Y-36747D01*
X13263Y-36625D02*
X14202Y-35651D01*
X13804Y-37607D02*
X13395Y-37199D01*
X14794Y-35800D01*
X15202Y-36209D01*
X13804Y-37607D01*
Y-37460D02*
X13542Y-37199D01*
X14794Y-35947D01*
X15055Y-36209D01*
X13804Y-37460D01*
Y-37313D02*
X13689Y-37199D01*
X14794Y-36094D01*
X14908Y-36209D01*
X13804Y-37313D01*
X13829Y-37191D02*
X14768Y-36216D01*
X14369Y-38173D02*
X13961Y-37764D01*
X15359Y-36366D01*
X15768Y-36774D01*
X14369Y-38173D01*
Y-38026D02*
X14108Y-37764D01*
X15359Y-36513D01*
X15621Y-36774D01*
X14369Y-38026D01*
Y-37879D02*
X14255Y-37764D01*
X15359Y-36660D01*
X15474Y-36774D01*
X14369Y-37879D01*
X14395Y-37757D02*
X15334Y-36782D01*
X14935Y-38739D02*
X14526Y-38330D01*
X15925Y-36931D01*
X16334Y-37340D01*
X14935Y-38739D01*
Y-38592D02*
X14674Y-38330D01*
X15925Y-37079D01*
X16187Y-37340D01*
X14935Y-38592D01*
Y-38444D02*
X14821Y-38330D01*
X15925Y-37226D01*
X16039Y-37340D01*
X14935Y-38444D01*
X14961Y-38322D02*
X15899Y-37348D01*
X15501Y-39305D02*
X15092Y-38896D01*
X16491Y-37497D01*
X16900Y-37906D01*
X15501Y-39305D01*
Y-39157D02*
X15239Y-38896D01*
X16491Y-37644D01*
X16752Y-37906D01*
X15501Y-39157D01*
Y-39010D02*
X15387Y-38896D01*
X16491Y-37791D01*
X16605Y-37906D01*
X15501Y-39010D01*
X15526Y-38888D02*
X16465Y-37913D01*
X16066Y-39870D02*
X15658Y-39461D01*
X17056Y-38063D01*
X17465Y-38471D01*
X16066Y-39870D01*
Y-39723D02*
X15805Y-39461D01*
X17056Y-38210D01*
X17318Y-38471D01*
X16066Y-39723D01*
Y-39576D02*
X15952Y-39461D01*
X17056Y-38357D01*
X17171Y-38471D01*
X16066Y-39576D01*
X16092Y-39454D02*
X17031Y-38479D01*
X16632Y-40436D02*
X16223Y-40027D01*
X17622Y-38628D01*
X18031Y-39037D01*
X16632Y-40436D01*
Y-40289D02*
X16370Y-40027D01*
X17622Y-38775D01*
X17884Y-39037D01*
X16632Y-40289D01*
Y-40141D02*
X16518Y-40027D01*
X17622Y-38923D01*
X17736Y-39037D01*
X16632Y-40141D01*
X16658Y-40019D02*
X17596Y-39045D01*
X20789Y-40027D02*
X20380Y-40436D01*
X18981Y-39037D01*
X19390Y-38628D01*
X20789Y-40027D01*
X20641D02*
X20380Y-40289D01*
X19128Y-39037D01*
X19390Y-38776D01*
X20641Y-40027D01*
X20494D02*
X20380Y-40141D01*
X19276Y-39037D01*
X19390Y-38923D01*
X20494Y-40027D01*
X20372Y-40001D02*
X19397Y-39063D01*
X21354Y-39461D02*
X20946Y-39870D01*
X19547Y-38471D01*
X19956Y-38062D01*
X21354Y-39461D01*
X21207D02*
X20946Y-39723D01*
X19694Y-38471D01*
X19956Y-38210D01*
X21207Y-39461D01*
X21060D02*
X20946Y-39576D01*
X19841Y-38471D01*
X19956Y-38357D01*
X21060Y-39461D01*
X20938Y-39436D02*
X19963Y-38497D01*
X21920Y-38896D02*
X21511Y-39304D01*
X20112Y-37906D01*
X20521Y-37497D01*
X21920Y-38896D01*
X21773D02*
X21511Y-39157D01*
X20260Y-37906D01*
X20521Y-37644D01*
X21773Y-38896D01*
X21625D02*
X21511Y-39010D01*
X20407Y-37906D01*
X20521Y-37791D01*
X21625Y-38896D01*
X21504Y-38870D02*
X20529Y-37931D01*
X22486Y-38330D02*
X22077Y-38739D01*
X20678Y-37340D01*
X21087Y-36931D01*
X22486Y-38330D01*
X22338D02*
X22077Y-38592D01*
X20825Y-37340D01*
X21087Y-37079D01*
X22338Y-38330D01*
X22191D02*
X22077Y-38444D01*
X20973Y-37340D01*
X21087Y-37226D01*
X22191Y-38330D01*
X22069Y-38304D02*
X21094Y-37366D01*
X25314Y-35501D02*
X24905Y-35910D01*
X23506Y-34512D01*
X23915Y-34103D01*
X25314Y-35501D01*
X25167D02*
X24905Y-35763D01*
X23654Y-34512D01*
X23915Y-34250D01*
X25167Y-35501D01*
X25019D02*
X24905Y-35616D01*
X23801Y-34512D01*
X23915Y-34397D01*
X25019Y-35501D01*
X24898Y-35476D02*
X23923Y-34537D01*
X25880Y-34936D02*
X25471Y-35345D01*
X24072Y-33946D01*
X24481Y-33537D01*
X25880Y-34936D01*
X25732D02*
X25471Y-35197D01*
X24219Y-33946D01*
X24481Y-33684D01*
X25732Y-34936D01*
X25585D02*
X25471Y-35050D01*
X24367Y-33946D01*
X24481Y-33832D01*
X25585Y-34936D01*
X25463Y-34910D02*
X24489Y-33971D01*
X26445Y-34370D02*
X26037Y-34779D01*
X24638Y-33380D01*
X25047Y-32971D01*
X26445Y-34370D01*
X26298D02*
X26037Y-34632D01*
X24785Y-33380D01*
X25047Y-33119D01*
X26298Y-34370D01*
X26151D02*
X26037Y-34484D01*
X24932Y-33380D01*
X25047Y-33266D01*
X26151Y-34370D01*
X26029Y-34345D02*
X25054Y-33406D01*
X19390Y-26364D02*
X18981Y-25956D01*
X20380Y-24557D01*
X20789Y-24966D01*
X19390Y-26364D01*
Y-26217D02*
X19128Y-25956D01*
X20380Y-24704D01*
X20641Y-24966D01*
X19390Y-26217D01*
Y-26070D02*
X19276Y-25956D01*
X20380Y-24851D01*
X20494Y-24966D01*
X19390Y-26070D01*
X19415Y-25948D02*
X20354Y-24973D01*
X19956Y-26930D02*
X19547Y-26521D01*
X20945Y-25122D01*
X21354Y-25531D01*
X19956Y-26930D01*
Y-26783D02*
X19694Y-26521D01*
X20945Y-25270D01*
X21207Y-25531D01*
X19956Y-26783D01*
Y-26635D02*
X19841Y-26521D01*
X20945Y-25417D01*
X21060Y-25531D01*
X19956Y-26635D01*
X19981Y-26514D02*
X20920Y-25539D01*
X20521Y-27496D02*
X20112Y-27087D01*
X21511Y-25688D01*
X21920Y-26097D01*
X20521Y-27496D01*
Y-27348D02*
X20260Y-27087D01*
X21511Y-25835D01*
X21773Y-26097D01*
X20521Y-27348D01*
Y-27201D02*
X20407Y-27087D01*
X21511Y-25983D01*
X21625Y-26097D01*
X20521Y-27201D01*
X20547Y-27079D02*
X21486Y-26105D01*
X21087Y-28061D02*
X20678Y-27653D01*
X22077Y-26254D01*
X22486Y-26663D01*
X21087Y-28061D01*
Y-27914D02*
X20825Y-27653D01*
X22077Y-26401D01*
X22338Y-26663D01*
X21087Y-27914D01*
Y-27767D02*
X20973Y-27653D01*
X22077Y-26548D01*
X22191Y-26663D01*
X21087Y-27767D01*
X21112Y-27645D02*
X22051Y-26670D01*
X21653Y-28627D02*
X21244Y-28218D01*
X22643Y-26819D01*
X23051Y-27228D01*
X21653Y-28627D01*
Y-28480D02*
X21391Y-28218D01*
X22643Y-26967D01*
X22904Y-27228D01*
X21653Y-28480D01*
Y-28333D02*
X21538Y-28218D01*
X22643Y-27114D01*
X22757Y-27228D01*
X21653Y-28333D01*
X21678Y-28211D02*
X22617Y-27236D01*
X22218Y-29193D02*
X21809Y-28784D01*
X23208Y-27385D01*
X23617Y-27794D01*
X22218Y-29193D01*
Y-29046D02*
X21957Y-28784D01*
X23208Y-27533D01*
X23470Y-27794D01*
X22218Y-29046D01*
Y-28898D02*
X22104Y-28784D01*
X23208Y-27680D01*
X23322Y-27794D01*
X22218Y-28898D01*
X22244Y-28776D02*
X23183Y-27802D01*
X22784Y-29759D02*
X22375Y-29350D01*
X23774Y-27951D01*
X24183Y-28360D01*
X22784Y-29759D01*
Y-29611D02*
X22522Y-29350D01*
X23774Y-28098D01*
X24035Y-28360D01*
X22784Y-29611D01*
Y-29464D02*
X22670Y-29350D01*
X23774Y-28246D01*
X23888Y-28360D01*
X22784Y-29464D01*
X22809Y-29342D02*
X23748Y-28367D01*
X23350Y-30324D02*
X22941Y-29915D01*
X24340Y-28517D01*
X24748Y-28925D01*
X23350Y-30324D01*
Y-30177D02*
X23088Y-29915D01*
X24340Y-28664D01*
X24601Y-28925D01*
X23350Y-30177D01*
Y-30030D02*
X23235Y-29915D01*
X24340Y-28811D01*
X24454Y-28925D01*
X23350Y-30030D01*
X23375Y-29908D02*
X24314Y-28933D01*
X23915Y-30890D02*
X23506Y-30481D01*
X24905Y-29082D01*
X25314Y-29491D01*
X23915Y-30890D01*
Y-30743D02*
X23654Y-30481D01*
X24905Y-29230D01*
X25167Y-29491D01*
X23915Y-30743D01*
Y-30595D02*
X23801Y-30481D01*
X24905Y-29377D01*
X25019Y-29491D01*
X23915Y-30595D01*
X23941Y-30474D02*
X24880Y-29499D01*
X24481Y-31456D02*
X24072Y-31047D01*
X25471Y-29648D01*
X25880Y-30057D01*
X24481Y-31456D01*
Y-31308D02*
X24219Y-31047D01*
X25471Y-29795D01*
X25732Y-30057D01*
X24481Y-31308D01*
Y-31161D02*
X24367Y-31047D01*
X25471Y-29943D01*
X25585Y-30057D01*
X24481Y-31161D01*
X24507Y-31039D02*
X25445Y-30064D01*
X25047Y-32021D02*
X24638Y-31612D01*
X26037Y-30214D01*
X26445Y-30622D01*
X25047Y-32021D01*
Y-31874D02*
X24785Y-31612D01*
X26037Y-30361D01*
X26298Y-30622D01*
X25047Y-31874D01*
Y-31727D02*
X24932Y-31612D01*
X26037Y-30508D01*
X26151Y-30622D01*
X25047Y-31727D01*
X25072Y-31605D02*
X26011Y-30630D01*
X12374Y-31612D02*
X11965Y-32021D01*
X10566Y-30622D01*
X10975Y-30214D01*
X12374Y-31612D01*
X12227D02*
X11965Y-31874D01*
X10714Y-30622D01*
X10975Y-30361D01*
X12227Y-31612D01*
X12079D02*
X11965Y-31727D01*
X10861Y-30622D01*
X10975Y-30508D01*
X12079Y-31612D01*
X11958Y-31587D02*
X10983Y-30648D01*
X12940Y-31047D02*
X12531Y-31456D01*
X11132Y-30057D01*
X11541Y-29648D01*
X12940Y-31047D01*
X12792D02*
X12531Y-31308D01*
X11279Y-30057D01*
X11541Y-29795D01*
X12792Y-31047D01*
X12645D02*
X12531Y-31161D01*
X11427Y-30057D01*
X11541Y-29943D01*
X12645Y-31047D01*
X12523Y-31021D02*
X11549Y-30082D01*
X13505Y-30481D02*
X13097Y-30890D01*
X11698Y-29491D01*
X12107Y-29082D01*
X13505Y-30481D01*
X13358D02*
X13097Y-30743D01*
X11845Y-29491D01*
X12107Y-29230D01*
X13358Y-30481D01*
X13211D02*
X13097Y-30595D01*
X11992Y-29491D01*
X12107Y-29377D01*
X13211Y-30481D01*
X13089Y-30456D02*
X12114Y-29517D01*
X14071Y-29915D02*
X13662Y-30324D01*
X12263Y-28925D01*
X12672Y-28517D01*
X14071Y-29915D01*
X13924D02*
X13662Y-30177D01*
X12411Y-28925D01*
X12672Y-28664D01*
X13924Y-29915D01*
X13776D02*
X13662Y-30030D01*
X12558Y-28925D01*
X12672Y-28811D01*
X13776Y-29915D01*
X13655Y-29890D02*
X12680Y-28951D01*
X16900Y-27087D02*
X16491Y-27496D01*
X15092Y-26097D01*
X15501Y-25688D01*
X16900Y-27087D01*
X16752D02*
X16491Y-27348D01*
X15239Y-26097D01*
X15501Y-25835D01*
X16752Y-27087D01*
X16605D02*
X16491Y-27201D01*
X15387Y-26097D01*
X15501Y-25983D01*
X16605Y-27087D01*
X16483Y-27061D02*
X15508Y-26123D01*
X17465Y-26521D02*
X17056Y-26930D01*
X15658Y-25531D01*
X16066Y-25122D01*
X17465Y-26521D01*
X17318D02*
X17056Y-26783D01*
X15805Y-25531D01*
X16066Y-25270D01*
X17318Y-26521D01*
X17171D02*
X17056Y-26635D01*
X15952Y-25531D01*
X16066Y-25417D01*
X17171Y-26521D01*
X17049Y-26496D02*
X16074Y-25557D01*
X18031Y-25956D02*
X17622Y-26364D01*
X16223Y-24966D01*
X16632Y-24557D01*
X18031Y-25956D01*
X17884D02*
X17622Y-26217D01*
X16371Y-24966D01*
X16632Y-24704D01*
X17884Y-25956D01*
X17736D02*
X17622Y-26070D01*
X16518Y-24966D01*
X16632Y-24851D01*
X17736Y-25956D01*
X17614Y-25930D02*
X16640Y-24991D01*
X24183Y-36633D02*
X23774Y-37042D01*
X22375Y-35643D01*
X22784Y-35234D01*
X24183Y-36633D01*
X24035D02*
X23774Y-36894D01*
X22522Y-35643D01*
X22784Y-35381D01*
X24035Y-36633D01*
X23888D02*
X23774Y-36747D01*
X22670Y-35643D01*
X22784Y-35529D01*
X23888Y-36633D01*
X23766Y-36607D02*
X22792Y-35668D01*
X23617Y-37199D02*
X23208Y-37607D01*
X21809Y-36209D01*
X22218Y-35800D01*
X23617Y-37199D01*
X23470D02*
X23208Y-37460D01*
X21957Y-36209D01*
X22218Y-35947D01*
X23470Y-37199D01*
X23322D02*
X23208Y-37313D01*
X22104Y-36209D01*
X22218Y-36094D01*
X23322Y-37199D01*
X23201Y-37173D02*
X22226Y-36234D01*
X23051Y-37764D02*
X22643Y-38173D01*
X21244Y-36774D01*
X21653Y-36365D01*
X23051Y-37764D01*
X22904D02*
X22643Y-38026D01*
X21391Y-36774D01*
X21653Y-36513D01*
X22904Y-37764D01*
X22757D02*
X22643Y-37878D01*
X21538Y-36774D01*
X21653Y-36660D01*
X22757Y-37764D01*
X22635Y-37739D02*
X21660Y-36800D01*
X132126Y-26143D02*
X131717Y-26552D01*
X130495Y-25330D01*
X130904Y-24921D01*
X132126Y-26143D01*
X131979D02*
X131717Y-26405D01*
X130643Y-25330D01*
X130904Y-25068D01*
X131979Y-26143D01*
X131832D02*
X131717Y-26257D01*
X130790Y-25330D01*
X130904Y-25216D01*
X131832Y-26143D01*
X131710Y-26117D02*
X130912Y-25355D01*
X136758Y-33037D02*
X136349Y-33446D01*
X135127Y-32224D01*
X135536Y-31815D01*
X136758Y-33037D01*
X136611D02*
X136349Y-33299D01*
X135274Y-32224D01*
X135536Y-31963D01*
X136611Y-33037D01*
X136463D02*
X136349Y-33152D01*
X135422Y-32224D01*
X135536Y-32110D01*
X136463Y-33037D01*
X136341Y-33012D02*
X135543Y-32250D01*
X129455Y-28987D02*
X129864Y-29396D01*
X128642Y-30618D01*
X128233Y-30209D01*
X129455Y-28987D01*
Y-29134D02*
X129716Y-29396D01*
X128642Y-30470D01*
X128380Y-30209D01*
X129455Y-29134D01*
Y-29281D02*
X129569Y-29396D01*
X128642Y-30323D01*
X128527Y-30209D01*
X129455Y-29281D01*
X129429Y-29403D02*
X128667Y-30201D01*
X130020Y-29553D02*
X130429Y-29961D01*
X129207Y-31183D01*
X128798Y-30775D01*
X130020Y-29553D01*
Y-29700D02*
X130282Y-29961D01*
X129207Y-31036D01*
X128946Y-30775D01*
X130020Y-29700D01*
Y-29847D02*
X130135Y-29961D01*
X129207Y-30889D01*
X129093Y-30775D01*
X130020Y-29847D01*
X129995Y-29969D02*
X129233Y-30767D01*
X130586Y-30118D02*
X130995Y-30527D01*
X129773Y-31749D01*
X129364Y-31340D01*
X130586Y-30118D01*
Y-30266D02*
X130848Y-30527D01*
X129773Y-31602D01*
X129511Y-31340D01*
X130586Y-30266D01*
Y-30413D02*
X130700Y-30527D01*
X129773Y-31454D01*
X129659Y-31340D01*
X130586Y-30413D01*
X130561Y-30535D02*
X129798Y-31333D01*
X131152Y-30684D02*
X131561Y-31093D01*
X130339Y-32315D01*
X129930Y-31906D01*
X131152Y-30684D01*
Y-30831D02*
X131413Y-31093D01*
X130339Y-32167D01*
X130077Y-31906D01*
X131152Y-30831D01*
Y-30978D02*
X131266Y-31093D01*
X130339Y-32020D01*
X130224Y-31906D01*
X131152Y-30978D01*
X131126Y-31100D02*
X130364Y-31898D01*
X131717Y-31250D02*
X132126Y-31658D01*
X130904Y-32880D01*
X130495Y-32472D01*
X131717Y-31250D01*
Y-31397D02*
X131979Y-31658D01*
X130904Y-32733D01*
X130643Y-32472D01*
X131717Y-31397D01*
Y-31544D02*
X131832Y-31658D01*
X130904Y-32586D01*
X130790Y-32472D01*
X131717Y-31544D01*
X131692Y-31666D02*
X130930Y-32464D01*
X132283Y-31815D02*
X132692Y-32224D01*
X131470Y-33446D01*
X131061Y-33037D01*
X132283Y-31815D01*
Y-31963D02*
X132545Y-32224D01*
X131470Y-33299D01*
X131208Y-33037D01*
X132283Y-31963D01*
Y-32110D02*
X132397Y-32224D01*
X131470Y-33152D01*
X131356Y-33037D01*
X132283Y-32110D01*
X132258Y-32232D02*
X131495Y-33030D01*
X132849Y-32381D02*
X133258Y-32790D01*
X132036Y-34012D01*
X131627Y-33603D01*
X132849Y-32381D01*
Y-32528D02*
X133110Y-32790D01*
X132036Y-33865D01*
X131774Y-33603D01*
X132849Y-32528D01*
Y-32676D02*
X132963Y-32790D01*
X132036Y-33717D01*
X131921Y-33603D01*
X132849Y-32676D01*
X132823Y-32797D02*
X132061Y-33595D01*
X133415Y-32947D02*
X133823Y-33355D01*
X132601Y-34578D01*
X132192Y-34169D01*
X133415Y-32947D01*
Y-33094D02*
X133676Y-33355D01*
X132601Y-34430D01*
X132340Y-34169D01*
X133415Y-33094D01*
Y-33241D02*
X133529Y-33355D01*
X132601Y-34283D01*
X132487Y-34169D01*
X133415Y-33241D01*
X133389Y-33363D02*
X132627Y-34161D01*
X133823Y-24446D02*
X133415Y-24855D01*
X132192Y-23633D01*
X132601Y-23224D01*
X133823Y-24446D01*
X133676D02*
X133415Y-24707D01*
X132340Y-23633D01*
X132601Y-23371D01*
X133676Y-24446D01*
X133529D02*
X133415Y-24560D01*
X132487Y-23633D01*
X132601Y-23519D01*
X133529Y-24446D01*
X133407Y-24420D02*
X132609Y-23658D01*
X133258Y-25012D02*
X132849Y-25420D01*
X131627Y-24198D01*
X132036Y-23790D01*
X133258Y-25012D01*
X133110D02*
X132849Y-25273D01*
X131774Y-24198D01*
X132036Y-23937D01*
X133110Y-25012D01*
X132963D02*
X132849Y-25126D01*
X131921Y-24198D01*
X132036Y-24084D01*
X132963Y-25012D01*
X132841Y-24986D02*
X132043Y-24224D01*
X132692Y-25577D02*
X132283Y-25986D01*
X131061Y-24764D01*
X131470Y-24355D01*
X132692Y-25577D01*
X132545D02*
X132283Y-25839D01*
X131208Y-24764D01*
X131470Y-24503D01*
X132545Y-25577D01*
X132397D02*
X132283Y-25692D01*
X131356Y-24764D01*
X131470Y-24650D01*
X132397Y-25577D01*
X132276Y-25552D02*
X131478Y-24790D01*
X131561Y-26709D02*
X131152Y-27118D01*
X129930Y-25896D01*
X130339Y-25487D01*
X131561Y-26709D01*
X131413D02*
X131152Y-26970D01*
X130077Y-25896D01*
X130339Y-25634D01*
X131413Y-26709D01*
X131266D02*
X131152Y-26823D01*
X130224Y-25896D01*
X130339Y-25781D01*
X131266Y-26709D01*
X131144Y-26683D02*
X130346Y-25921D01*
X130995Y-27274D02*
X130586Y-27683D01*
X129364Y-26461D01*
X129773Y-26052D01*
X130995Y-27274D01*
X130848D02*
X130586Y-27536D01*
X129511Y-26461D01*
X129773Y-26200D01*
X130848Y-27274D01*
X130700D02*
X130586Y-27389D01*
X129659Y-26461D01*
X129773Y-26347D01*
X130700Y-27274D01*
X130579Y-27249D02*
X129780Y-26487D01*
X130429Y-27840D02*
X130020Y-28249D01*
X128798Y-27027D01*
X129207Y-26618D01*
X130429Y-27840D01*
X130282D02*
X130020Y-28102D01*
X128946Y-27027D01*
X129207Y-26765D01*
X130282Y-27840D01*
X130135D02*
X130020Y-27954D01*
X129093Y-27027D01*
X129207Y-26913D01*
X130135Y-27840D01*
X130013Y-27815D02*
X129215Y-27052D01*
X129864Y-28406D02*
X129455Y-28815D01*
X128233Y-27593D01*
X128642Y-27184D01*
X129864Y-28406D01*
X129716D02*
X129455Y-28667D01*
X128380Y-27593D01*
X128642Y-27331D01*
X129716Y-28406D01*
X129569D02*
X129455Y-28520D01*
X128527Y-27593D01*
X128642Y-27478D01*
X129569Y-28406D01*
X129447Y-28380D02*
X128649Y-27618D01*
X135218Y-23224D02*
X135626Y-23633D01*
X134404Y-24855D01*
X133996Y-24446D01*
X135218Y-23224D01*
Y-23371D02*
X135479Y-23633D01*
X134404Y-24707D01*
X134143Y-24446D01*
X135218Y-23371D01*
Y-23519D02*
X135332Y-23633D01*
X134404Y-24560D01*
X134290Y-24446D01*
X135218Y-23519D01*
X135192Y-23640D02*
X134430Y-24438D01*
X135783Y-23790D02*
X136192Y-24198D01*
X134970Y-25420D01*
X134561Y-25012D01*
X135783Y-23790D01*
Y-23937D02*
X136045Y-24198D01*
X134970Y-25273D01*
X134709Y-25012D01*
X135783Y-23937D01*
Y-24084D02*
X135898Y-24198D01*
X134970Y-25126D01*
X134856Y-25012D01*
X135783Y-24084D01*
X135758Y-24206D02*
X134996Y-25004D01*
X136915Y-24921D02*
X137324Y-25330D01*
X136102Y-26552D01*
X135693Y-26143D01*
X136915Y-24921D01*
Y-25068D02*
X137176Y-25330D01*
X136102Y-26405D01*
X135840Y-26143D01*
X136915Y-25068D01*
Y-25216D02*
X137029Y-25330D01*
X136102Y-26257D01*
X135987Y-26143D01*
X136915Y-25216D01*
X136889Y-25337D02*
X136127Y-26135D01*
X137480Y-25487D02*
X137889Y-25896D01*
X136667Y-27118D01*
X136258Y-26709D01*
X137480Y-25487D01*
Y-25634D02*
X137742Y-25896D01*
X136667Y-26970D01*
X136406Y-26709D01*
X137480Y-25634D01*
Y-25781D02*
X137595Y-25896D01*
X136667Y-26823D01*
X136553Y-26709D01*
X137480Y-25781D01*
X137455Y-25903D02*
X136693Y-26701D01*
X138046Y-26052D02*
X138455Y-26461D01*
X137233Y-27683D01*
X136824Y-27274D01*
X138046Y-26052D01*
Y-26200D02*
X138308Y-26461D01*
X137233Y-27536D01*
X136971Y-27274D01*
X138046Y-26200D01*
Y-26347D02*
X138160Y-26461D01*
X137233Y-27389D01*
X137119Y-27274D01*
X138046Y-26347D01*
X138021Y-26469D02*
X137258Y-27267D01*
X138612Y-26618D02*
X139021Y-27027D01*
X137799Y-28249D01*
X137390Y-27840D01*
X138612Y-26618D01*
Y-26765D02*
X138873Y-27027D01*
X137799Y-28102D01*
X137537Y-27840D01*
X138612Y-26765D01*
Y-26913D02*
X138726Y-27027D01*
X137799Y-27954D01*
X137684Y-27840D01*
X138612Y-26913D01*
X138586Y-27034D02*
X137824Y-27832D01*
X139177Y-27184D02*
X139586Y-27593D01*
X138364Y-28815D01*
X137955Y-28406D01*
X139177Y-27184D01*
Y-27331D02*
X139439Y-27593D01*
X138364Y-28667D01*
X138103Y-28406D01*
X139177Y-27331D01*
Y-27478D02*
X139292Y-27593D01*
X138364Y-28520D01*
X138250Y-28406D01*
X139177Y-27478D01*
X139152Y-27600D02*
X138390Y-28398D01*
X139586Y-30209D02*
X139177Y-30618D01*
X137955Y-29396D01*
X138364Y-28987D01*
X139586Y-30209D01*
X139439D02*
X139177Y-30470D01*
X138103Y-29396D01*
X138364Y-29134D01*
X139439Y-30209D01*
X139292D02*
X139177Y-30323D01*
X138250Y-29396D01*
X138364Y-29281D01*
X139292Y-30209D01*
X139170Y-30183D02*
X138372Y-29421D01*
X139021Y-30775D02*
X138612Y-31183D01*
X137390Y-29961D01*
X137799Y-29553D01*
X139021Y-30775D01*
X138873D02*
X138612Y-31036D01*
X137537Y-29961D01*
X137799Y-29700D01*
X138873Y-30775D01*
X138726D02*
X138612Y-30889D01*
X137684Y-29961D01*
X137799Y-29847D01*
X138726Y-30775D01*
X138604Y-30749D02*
X137806Y-29987D01*
X138455Y-31340D02*
X138046Y-31749D01*
X136824Y-30527D01*
X137233Y-30118D01*
X138455Y-31340D01*
X138308D02*
X138046Y-31602D01*
X136971Y-30527D01*
X137233Y-30266D01*
X138308Y-31340D01*
X138160D02*
X138046Y-31454D01*
X137119Y-30527D01*
X137233Y-30413D01*
X138160Y-31340D01*
X138038Y-31315D02*
X137240Y-30553D01*
X137889Y-31906D02*
X137480Y-32315D01*
X136258Y-31093D01*
X136667Y-30684D01*
X137889Y-31906D01*
X137742D02*
X137480Y-32167D01*
X136406Y-31093D01*
X136667Y-30831D01*
X137742Y-31906D01*
X137595D02*
X137480Y-32020D01*
X136553Y-31093D01*
X136667Y-30979D01*
X137595Y-31906D01*
X137473Y-31880D02*
X136675Y-31118D01*
X137324Y-32472D02*
X136915Y-32880D01*
X135693Y-31658D01*
X136102Y-31250D01*
X137324Y-32472D01*
X137176D02*
X136915Y-32733D01*
X135840Y-31658D01*
X136102Y-31397D01*
X137176Y-32472D01*
X137029D02*
X136915Y-32586D01*
X135987Y-31658D01*
X136102Y-31544D01*
X137029Y-32472D01*
X136907Y-32446D02*
X136109Y-31684D01*
X136192Y-33603D02*
X135783Y-34012D01*
X134561Y-32790D01*
X134970Y-32381D01*
X136192Y-33603D01*
X136045D02*
X135783Y-33865D01*
X134709Y-32790D01*
X134970Y-32528D01*
X136045Y-33603D01*
X135897D02*
X135783Y-33717D01*
X134856Y-32790D01*
X134970Y-32676D01*
X135897Y-33603D01*
X135776Y-33577D02*
X134978Y-32815D01*
X135626Y-34169D02*
X135218Y-34578D01*
X133996Y-33355D01*
X134404Y-32947D01*
X135626Y-34169D01*
X135479D02*
X135218Y-34430D01*
X134143Y-33355D01*
X134404Y-33094D01*
X135479Y-34169D01*
X135332D02*
X135218Y-34283D01*
X134290Y-33355D01*
X134404Y-33241D01*
X135332Y-34169D01*
X135210Y-34143D02*
X134412Y-33381D01*
X16334Y-27653D02*
X15925Y-28061D01*
X14526Y-26663D01*
X14935Y-26254D01*
X16334Y-27653D01*
X16187D02*
X15925Y-27914D01*
X14674Y-26663D01*
X14935Y-26401D01*
X16187Y-27653D01*
X16039D02*
X15925Y-27767D01*
X14821Y-26663D01*
X14935Y-26548D01*
X16039Y-27653D01*
X15917Y-27627D02*
X14943Y-26688D01*
X15768Y-28218D02*
X15359Y-28627D01*
X13961Y-27228D01*
X14369Y-26820D01*
X15768Y-28218D01*
X15621D02*
X15359Y-28480D01*
X14108Y-27228D01*
X14369Y-26967D01*
X15621Y-28218D01*
X15474D02*
X15359Y-28333D01*
X14255Y-27228D01*
X14369Y-27114D01*
X15474Y-28218D01*
X15352Y-28193D02*
X14377Y-27254D01*
X15202Y-28784D02*
X14794Y-29193D01*
X13395Y-27794D01*
X13804Y-27385D01*
X15202Y-28784D01*
X15055D02*
X14794Y-29046D01*
X13542Y-27794D01*
X13804Y-27533D01*
X15055Y-28784D01*
X14908D02*
X14794Y-28898D01*
X13689Y-27794D01*
X13804Y-27680D01*
X14908Y-28784D01*
X14786Y-28758D02*
X13811Y-27820D01*
X14637Y-29350D02*
X14228Y-29759D01*
X12829Y-28360D01*
X13238Y-27951D01*
X14637Y-29350D01*
X14489D02*
X14228Y-29611D01*
X12976Y-28360D01*
X13238Y-28098D01*
X14489Y-29350D01*
X14342D02*
X14228Y-29464D01*
X13124Y-28360D01*
X13238Y-28246D01*
X14342Y-29350D01*
X14220Y-29324D02*
X13246Y-28385D01*
X24748Y-36067D02*
X24340Y-36476D01*
X22941Y-35077D01*
X23350Y-34668D01*
X24748Y-36067D01*
X24601D02*
X24340Y-36329D01*
X23088Y-35077D01*
X23350Y-34816D01*
X24601Y-36067D01*
X24454D02*
X24340Y-36181D01*
X23235Y-35077D01*
X23350Y-34963D01*
X24454Y-36067D01*
X24332Y-36042D02*
X23357Y-35103D01*
D43*
X129412Y-10493D02*
D03*
X126612Y-10493D02*
D03*
X137888Y-10507D02*
D03*
X140688Y-10507D02*
D03*
X144212Y-23693D02*
D03*
X141412Y-23693D02*
D03*
X56412Y-27693D02*
D03*
X53612Y-27693D02*
D03*
X76412D02*
D03*
X73612D02*
D03*
X99288Y-40707D02*
D03*
X96488D02*
D03*
X119288D02*
D03*
X116488D02*
D03*
X96512Y-44193D02*
D03*
X99312D02*
D03*
X116512D02*
D03*
X119312D02*
D03*
X99288Y-37207D02*
D03*
X96488D02*
D03*
X119288D02*
D03*
X116488D02*
D03*
X59288Y-40707D02*
D03*
X56488D02*
D03*
X79288D02*
D03*
X76488D02*
D03*
X56512Y-44193D02*
D03*
X59312D02*
D03*
X76512D02*
D03*
X79312D02*
D03*
X59288Y-37207D02*
D03*
X56488D02*
D03*
X79288D02*
D03*
X76488D02*
D03*
X93612Y-24193D02*
D03*
X96412D02*
D03*
X113612D02*
D03*
X116412D02*
D03*
X96388Y-20707D02*
D03*
X93588D02*
D03*
X116388D02*
D03*
X113588D02*
D03*
X93612Y-27693D02*
D03*
X96412D02*
D03*
X113612D02*
D03*
X116412D02*
D03*
X73612Y-24193D02*
D03*
X76412D02*
D03*
X56388Y-20707D02*
D03*
X53588D02*
D03*
X76388D02*
D03*
X73588D02*
D03*
X53612Y-24193D02*
D03*
X56412D02*
D03*
X141512Y-34293D02*
D03*
X144312Y-34293D02*
D03*
D44*
X133097Y-10500D02*
D03*
X131827Y-15700D02*
D03*
X133097D02*
D03*
X131827Y-10500D02*
D03*
X135597D02*
D03*
X134327Y-15700D02*
D03*
X135597D02*
D03*
X134327Y-10500D02*
D03*
D45*
X145807Y-14312D02*
D03*
Y-11512D02*
D03*
X145607Y-20212D02*
D03*
X145607Y-17412D02*
D03*
X88493Y-37088D02*
D03*
X88493Y-39888D02*
D03*
X68493Y-37088D02*
D03*
X68493Y-39888D02*
D03*
X48493Y-37088D02*
D03*
X48493Y-39888D02*
D03*
X108493Y-37088D02*
D03*
X108493Y-39888D02*
D03*
X64007Y-27912D02*
D03*
Y-25112D02*
D03*
X124007Y-27912D02*
D03*
Y-25112D02*
D03*
X104007Y-27912D02*
D03*
Y-25112D02*
D03*
X84007Y-27912D02*
D03*
Y-25112D02*
D03*
D46*
X149904Y-62602D02*
D03*
X149804Y-57602D02*
D03*
X159404Y-62602D02*
D03*
X159404Y-57602D02*
D03*
X148999Y-4001D02*
D03*
X127900Y-4000D02*
D03*
X138500D02*
D03*
X37500Y-62500D02*
D03*
X27500D02*
D03*
X7500D02*
D03*
X17500D02*
D03*
X2501Y-56001D02*
D03*
D47*
X140009Y-49883D02*
D03*
Y-45313D02*
D03*
X28991Y-25317D02*
D03*
Y-29887D02*
D03*
D48*
X132609Y-47598D02*
D03*
D49*
X25105Y-45542D02*
D03*
Y-47442D02*
D03*
X3205Y-21342D02*
D03*
Y-19442D02*
D03*
X11105Y-43042D02*
D03*
Y-41142D02*
D03*
X17495Y-55958D02*
D03*
Y-54058D02*
D03*
X17505Y-49742D02*
D03*
Y-51642D02*
D03*
X12395Y-55958D02*
D03*
Y-54058D02*
D03*
X12405Y-49742D02*
D03*
Y-51642D02*
D03*
X9805Y-47442D02*
D03*
Y-49342D02*
D03*
Y-51842D02*
D03*
Y-53742D02*
D03*
X14905Y-51942D02*
D03*
Y-53842D02*
D03*
X14105Y-43742D02*
D03*
Y-45642D02*
D03*
D50*
X35058Y-47205D02*
D03*
X36958D02*
D03*
X14842Y-17395D02*
D03*
X12942D02*
D03*
X30158Y-17505D02*
D03*
X32058D02*
D03*
X25658D02*
D03*
X27558D02*
D03*
X6142Y-26395D02*
D03*
X8042D02*
D03*
X6142Y-28695D02*
D03*
X8042D02*
D03*
X6142Y-30995D02*
D03*
X8042D02*
D03*
X6142Y-33295D02*
D03*
X8042D02*
D03*
X38058Y-40305D02*
D03*
X36158D02*
D03*
X33058D02*
D03*
X31158D02*
D03*
X38058Y-37605D02*
D03*
X36158D02*
D03*
X33058D02*
D03*
X31158D02*
D03*
X2958Y-41605D02*
D03*
X4858D02*
D03*
X2958Y-39005D02*
D03*
X4858D02*
D03*
X38058Y-44705D02*
D03*
X36158D02*
D03*
X31142Y-44695D02*
D03*
X33042D02*
D03*
X33058Y-42505D02*
D03*
X31158D02*
D03*
D51*
X7762Y-23352D02*
D03*
X9032Y-23352D02*
D03*
X6492D02*
D03*
D52*
Y-17652D02*
D03*
X10302Y-23352D02*
D03*
X7762Y-17652D02*
D03*
X9032D02*
D03*
X10302D02*
D03*
D53*
X36391Y-27602D02*
D03*
D54*
X31389Y-33794D02*
D03*
X37739D02*
D03*
X31389Y-21494D02*
D03*
X37739D02*
D03*
D55*
X158999Y-4001D02*
D03*
X153999D02*
D03*
X132900Y-4000D02*
D03*
X143500D02*
D03*
X32500Y-62500D02*
D03*
X22500D02*
D03*
X12500D02*
D03*
X2500D02*
D03*
X2501Y-51001D02*
D03*
Y-46001D02*
D03*
D56*
X105000Y-10000D02*
D03*
X107500Y-55000D02*
D03*
X195000Y-60000D02*
D03*
Y-5000D02*
D03*
X168800Y-5100D02*
D03*
Y-60100D02*
D03*
X45000Y-5000D02*
D03*
Y-60000D02*
D03*
D57*
X112011Y-44008D02*
D03*
X92011D02*
D03*
X72011D02*
D03*
X52011D02*
D03*
X120489Y-20992D02*
D03*
X100489D02*
D03*
X80489D02*
D03*
X60489D02*
D03*
X144111Y-39808D02*
D03*
X140000Y-42500D02*
D03*
X136666Y-29034D02*
D03*
X126500Y-29300D02*
D03*
X134400Y-18200D02*
D03*
X23300Y-13700D02*
D03*
X10600Y-33000D02*
D03*
X12400Y-21100D02*
D03*
X16400Y-29200D02*
D03*
X17000Y-35700D02*
D03*
X20600Y-29300D02*
D03*
X31389Y-32500D02*
D03*
X30600Y-48400D02*
D03*
X28800Y-37100D02*
D03*
X34600Y-37595D02*
D03*
X29000Y-39100D02*
D03*
X34600Y-40300D02*
D03*
X27000Y-47200D02*
D03*
X38800D02*
D03*
X17500Y-47700D02*
D03*
X12400Y-47800D02*
D03*
X20400Y-46800D02*
D03*
X28400Y-45600D02*
D03*
X11400Y-46400D02*
D03*
X34600Y-44700D02*
D03*
X22600Y-43200D02*
D03*
X28300Y-42500D02*
D03*
X14800Y-24600D02*
D03*
D58*
X109511Y-44008D02*
D03*
X89511D02*
D03*
X69511D02*
D03*
X49511D02*
D03*
X122989Y-20992D02*
D03*
X102989D02*
D03*
X82989D02*
D03*
X62989D02*
D03*
X141611Y-39808D02*
D03*
D59*
X127048Y-40191D02*
D03*
X129588D02*
D03*
X132128D02*
D03*
X130093Y-61699D02*
D03*
X142093D02*
D03*
X35800Y-4680D02*
D03*
X24400D02*
D03*
X34545Y-11030D02*
D03*
X33275Y-13570D02*
D03*
X32005Y-11030D02*
D03*
X30735Y-13570D02*
D03*
X26925Y-11030D02*
D03*
X25655Y-13570D02*
D03*
X5555D02*
D03*
X6825Y-11030D02*
D03*
X8095Y-13570D02*
D03*
X9365Y-11030D02*
D03*
X10635Y-13570D02*
D03*
X11905Y-11030D02*
D03*
X13175Y-13570D02*
D03*
X14445Y-11030D02*
D03*
X4300Y-4680D02*
D03*
X15700D02*
D03*
X16692Y-42788D02*
D03*
X35592Y-42488D02*
D03*
X15848Y-21191D02*
D03*
X18388D02*
D03*
X20928D02*
D03*
X7900Y-36708D02*
D03*
X7900Y-41708D02*
D03*
X2000Y-26040D02*
D03*
Y-28580D02*
D03*
Y-31120D02*
D03*
Y-33660D02*
D03*
X29465Y-11030D02*
D03*
X28195Y-13570D02*
D03*
D60*
X137208Y-40191D02*
D03*
X130093Y-56699D02*
D03*
X142093D02*
D03*
X19192Y-42788D02*
D03*
X38092Y-42488D02*
D03*
X26008Y-21191D02*
D03*
X2000Y-36200D02*
D03*
D61*
X156300Y-25100D02*
D03*
Y-40100D02*
D03*
X181300Y-20100D02*
D03*
Y-45100D02*
D03*
D62*
X195901Y-27601D02*
D03*
Y-32601D02*
D03*
X57500Y-3700D02*
D03*
X77500D02*
D03*
X97500D02*
D03*
X117500D02*
D03*
X54900Y-61200D02*
D03*
X74900D02*
D03*
X94900D02*
D03*
X114900Y-61200D02*
D03*
X52400D02*
D03*
X72400D02*
D03*
X92400D02*
D03*
X112400D02*
D03*
X60000Y-3700D02*
D03*
X80000D02*
D03*
X99900D02*
D03*
X120000D02*
D03*
D63*
X195901Y-37601D02*
D03*
X52500Y-3700D02*
D03*
X72500D02*
D03*
X92500D02*
D03*
X112500D02*
D03*
X59900Y-61200D02*
D03*
X79900D02*
D03*
X99900D02*
D03*
X119900D02*
D03*
D64*
X22460Y-57510D02*
D03*
X25000D02*
D03*
X27540D02*
D03*
X22460Y-49890D02*
D03*
X25000D02*
D03*
X32460Y-57510D02*
D03*
X35000D02*
D03*
X37540D02*
D03*
X32460Y-49890D02*
D03*
X35000D02*
D03*
D65*
X27540D02*
D03*
X37540D02*
D03*
D66*
X37800Y-1600D02*
D03*
X22400D02*
D03*
X2300D02*
D03*
X17700D02*
D03*
D67*
X57038Y-15711D02*
D03*
X54498Y-13211D02*
D03*
X51958Y-15711D02*
D03*
X77038D02*
D03*
X74498Y-13211D02*
D03*
X71958Y-15711D02*
D03*
X97038D02*
D03*
X94498Y-13211D02*
D03*
X91958Y-15711D02*
D03*
X117038D02*
D03*
X114498Y-13211D02*
D03*
X111958Y-15711D02*
D03*
X55362Y-49189D02*
D03*
X57902Y-51689D02*
D03*
X60442Y-49189D02*
D03*
X75362D02*
D03*
X77902Y-51689D02*
D03*
X80442Y-49189D02*
D03*
X95362D02*
D03*
X97902Y-51689D02*
D03*
X100442Y-49189D02*
D03*
X115362D02*
D03*
X117902Y-51689D02*
D03*
X120442Y-49189D02*
D03*
D68*
X4800Y-43907D02*
D03*
X9000Y-44807D02*
D03*
X7300Y-48207D02*
D03*
X7506Y-53500D02*
D03*
X35006Y-17600D02*
D03*
X16400Y-12607D02*
D03*
X20006Y-12700D02*
D03*
X3900Y-16807D02*
D03*
X21406Y-18800D02*
D03*
X4506Y-23700D02*
D03*
X5206Y-35800D02*
D03*
X22900Y-24807D02*
D03*
X26400Y-28007D02*
D03*
X28106Y-34400D02*
D03*
X13800Y-40507D02*
D03*
X145006Y-59900D02*
D03*
D03*
X147500Y-62507D02*
D03*
X130006Y-22500D02*
D03*
X142500Y-15007D02*
D03*
X139100Y-24207D02*
D03*
X143500Y-20107D02*
D03*
X142506Y-27500D02*
D03*
X145000Y-30107D02*
D03*
X142500Y-32507D02*
D03*
Y-37507D02*
D03*
X142506Y-42500D02*
D03*
X145000Y-45007D02*
D03*
X142500Y-47507D02*
D03*
X145006Y-50100D02*
D03*
X142500Y-52607D02*
D03*
X137506Y-35000D02*
D03*
X135000Y-37507D02*
D03*
X127506Y-42500D02*
D03*
X132506Y-42600D02*
D03*
X137500Y-42507D02*
D03*
X137600Y-47507D02*
D03*
X137506Y-52500D02*
D03*
X132506D02*
D03*
X127500Y-52507D02*
D03*
Y-47507D02*
D03*
X122800Y-37007D02*
D03*
X125006Y-17500D02*
D03*
X130000Y-17507D02*
D03*
X140006Y-17500D02*
D03*
X137500Y-20007D02*
D03*
X137506Y-15000D02*
D03*
X127506D02*
D03*
Y-20000D02*
D03*
X127500Y-25007D02*
D03*
X72506Y-35000D02*
D03*
X67506D02*
D03*
X62506D02*
D03*
X72506Y-30000D02*
D03*
X87506D02*
D03*
X82506D02*
D03*
X77500Y-30007D02*
D03*
X67506Y-30000D02*
D03*
X62506D02*
D03*
X57506D02*
D03*
X47500Y-25007D02*
D03*
X55000Y-32507D02*
D03*
X52506Y-35000D02*
D03*
Y-30000D02*
D03*
X47506Y-35000D02*
D03*
X50006Y-32500D02*
D03*
X47500Y-30007D02*
D03*
X45000Y-22507D02*
D03*
X42500Y-25007D02*
D03*
X45006Y-27500D02*
D03*
X42500Y-30007D02*
D03*
X45000Y-32507D02*
D03*
X42506Y-35000D02*
D03*
X45000Y-37507D02*
D03*
X42500Y-40007D02*
D03*
X45000Y-42507D02*
D03*
X52506Y-40000D02*
D03*
X72506Y-40100D02*
D03*
X92500Y-40007D02*
D03*
X112500D02*
D03*
X120000Y-25007D02*
D03*
X100006Y-25000D02*
D03*
X60000Y-25007D02*
D03*
X80000D02*
D03*
X67506Y-25000D02*
D03*
X67500Y-20007D02*
D03*
X87506Y-25000D02*
D03*
X87500Y-20007D02*
D03*
X107500D02*
D03*
X107506Y-25000D02*
D03*
X105000Y-37507D02*
D03*
Y-42507D02*
D03*
X85006Y-37500D02*
D03*
X85000Y-42507D02*
D03*
X65000Y-37507D02*
D03*
Y-42507D02*
D03*
X19265Y-32595D02*
D03*
X133806Y-30400D02*
D03*
M02*
