METRIC,LZ
M48
T1F00S00C0.500
T2F00S00C0.600
T3F00S00C0.850
T4F00S00C0.900
T5F00S00C0.950
T6F00S00C1.000
T7F00S00C1.300
T8F00S00C1.500
T9F00S00C1.800
T10F00S00C3.500
T11F00S00C4.000
%
T01
X01688Y-00601
Y-00051
T02
X0005206Y-00358
X00048Y-0043907
X0009Y-0044807
X00073Y-0048207
X0007506Y-00535
X00138Y-0040507
X0019265Y-0032595
X0028106Y-00344
X00264Y-0028007
X00425Y-0030007
X0042506Y-0035
X0045Y-0032507
X0047506Y-0035
X00475Y-0030007
X0050006Y-00325
X0052506Y-0035
X0055Y-0032507
X0052506Y-003
X0057506
X0062506
X0067506
Y-0035
X0062506
X0065Y-0037507
Y-0042507
X0052506Y-004
X0045Y-0037507
Y-0042507
X00425Y-0040007
X0045006Y-00275
X0072506Y-003
Y-0035
Y-00401
X0085Y-0042507
X0085006Y-00375
X0087506Y-003
X0082506
X00775Y-0030007
X00925Y-0040007
X0105Y-0037507
Y-0042507
X01125Y-0040007
X01228Y-0037007
X0127506Y-00425
X01275Y-0047507
Y-0052507
X0132506Y-00525
X0137506
X01376Y-0047507
X01425
X0145Y-0045007
X0142506Y-00425
X01425Y-0037507
Y-0032507
X0145Y-0030107
X0142506Y-00275
X0133806Y-00304
X0137506Y-0035
X0135Y-0037507
X01375Y-0042507
X0132506Y-00426
X0145006Y-00501
X01425Y-0052607
X0145006Y-00599
X01475Y-0062507
X01435Y-0020107
X01425Y-0015007
X0140006Y-00175
X0137506Y-0015
X01375Y-0020007
X01391Y-0024207
X0130006Y-00225
X013Y-0017507
X0127506Y-002
X0125006Y-00175
X0127506Y-0015
X01275Y-0025007
X012
X0107506Y-0025
X01075Y-0020007
X0100006Y-0025
X0087506
X00875Y-0020007
X008Y-0025007
X0067506Y-0025
X00675Y-0020007
X006Y-0025007
X00475
X0045Y-0022507
X00425Y-0025007
X0035006Y-00176
X0021406Y-00188
X0020006Y-00127
X00164Y-0012607
X00039Y-0016807
X0004506Y-00237
X00229Y-0024807
T03
X00106Y-0033
X0017Y-00357
X00164Y-00292
X00206Y-00293
X00226Y-00432
X00204Y-00468
X00175Y-00477
X00124Y-00478
X00114Y-00464
X0027Y-00472
X00284Y-00456
X00283Y-00425
X0029Y-00391
X00288Y-00371
X00346Y-0037595
Y-00403
Y-00447
X00388Y-00472
X00306Y-00484
X0031389Y-00325
X0049511Y-0044008
X0052011
X0069511
X0072011
X0089511
X0092011
X0109511
X0112011
X01265Y-00293
X0136666Y-0029034
X0141611Y-0039808
X0144111
X014Y-00425
X01344Y-00182
X0122989Y-0020992
X0120489
X0102989
X0100489
X0082989
X0080489
X0062989
X0060489
X00233Y-00137
X00124Y-00211
X00148Y-00246
T04
X0002Y-002858
Y-003112
Y-003366
Y-00362
X002246Y-004989
X0025
X002754
Y-005751
X0025
X002246
X003246
X0035
X003754
Y-004989
X0035
X003246
X0002Y-002604
T05
X0016692Y-0042788
X0019192
X0035592Y-0042488
X0038092
T06
X00079Y-0036708
X00079Y-0041708
X0127048Y-0040191
X0129588
X0132128
X0137208
X0142093Y-0056699
Y-0061699
X0130093
Y-0056699
X0033275Y-001357
X0030735
X0032005Y-001103
X0034545Y-001103
X0029465
X0026925
X0025655Y-001357
X0028195Y-001357
X0026008Y-0021191
X0020928
X0018388
X0015848
X0013175Y-001357
X0010635
X0008095Y-001357
X0005555Y-001357
X0006825Y-001103
X0009365
X0011905Y-001103
X0014445Y-001103
T07
X0002501Y-0046001
Y-0051001
Y-0056001
X00025Y-00625
X00075
X00125
X00175
X00225
X00275
X00325
X00375
X00524Y-00612
X00549Y-00612
X00599
X0057902Y-0051689
X0055362Y-0049189
X0060442
X0075362
X0077902Y-0051689
X0080442Y-0049189
X00799Y-00612
X00749
X00724Y-00612
X00924
X00949Y-00612
X00999
X0097902Y-0051689
X0095362Y-0049189
X0100442
X0115362
X0117902Y-0051689
X0120442Y-0049189
X01199Y-00612
X01149Y-00612
X01124
X0195901Y-0037601
Y-0032601
Y-0027601
X0158999Y-0004001
X0153999
X0148999Y-0004001
X01435Y-0004
X01385
X01329
X01279
X012Y-00037
X01175
X01125
X0114498Y-0013211
X0117038Y-0015711
X0111958
X0097038
X0094498Y-0013211
X0091958Y-0015711
X00925Y-00037
X00975
X00999
X008
X00775
X00725
X0074498Y-0013211
X0077038Y-0015711
X0071958
X0057038Y-0015711
X0054498Y-0013211
X0051958Y-0015711
X00525Y-00037
X00575
X006
T08
X01563Y-00401
X01813Y-00451
Y-00201
X01563Y-00251
T09
X00378Y-00016
X00224
X00177
X00023
T10
X00358Y-000468
X00244
X00157
X00043
T11
X0045Y-006
X01075Y-0055
X0195Y-006
Y-0005
X0105Y-001
X0045Y-0005
M30
